<svg xmlns="http://www.w3.org/2000/svg" xmlns:xlink="http://www.w3.org/1999/xlink" width="32" height="32" version="1.1" viewBox="0 0 32 32"><title>29875A69-17EB-4E85-9F27-0C3A2A0A69A0@3x</title><desc>Created with sketchtool.</desc><g id="Device-Pages" fill="none" fill-rule="evenodd" stroke="none" stroke-width="1"><g id="202001---Landing-Page---MacOS---03" transform="translate(-821.000000, -4624.000000)"><g id="Downloads" transform="translate(-31.000000, 4300.000000)"><g id="icons_stores" transform="translate(509.000000, 324.000000)"><g id="ic_android" transform="translate(343.000000, 0.000000)"><rect id="bg_device" width="32" height="32" x="0" y="0" rx="1.091"/><path id="ic_Android" fill="#6D6E70" fill-rule="nonzero" d="M24.9080224,13.5700702 L24.9080224,18.3610302 C24.9080224,19.0269174 24.3682141,19.5667256 23.7023269,19.5667256 C23.0364397,19.5667256 22.4966315,19.0269174 22.4966315,18.3610302 L22.4966315,13.5700702 C22.4966315,12.904183 23.0364397,12.3643748 23.7023269,12.3643748 C24.3682141,12.3643748 24.9080224,12.904183 24.9080224,13.5700702 Z M9.20574217,12.3643748 C8.88315475,12.3671758 8.57489378,12.4980157 8.34877939,12.7281087 C8.122665,12.9582016 7.99722119,13.2686976 8.00004672,13.5912848 L8.00004672,18.378709 C8.00004672,19.0445962 8.53985496,19.5844044 9.20574217,19.5844044 C9.87162937,19.5844044 10.4114376,19.0445962 10.4114376,18.378709 L10.4114376,13.5912848 C10.4152084,13.2684178 10.2900722,12.9573763 10.0637549,12.7270769 C9.83743758,12.4967775 9.52862587,12.3662355 9.20574217,12.3643748 L9.20574217,12.3643748 Z M11.1821874,21.1153901 C11.1880109,21.6301021 11.6079595,22.0437356 12.1227006,22.0417603 L13.2011085,22.0417603 L13.2011085,24.7077261 C13.2011085,25.1384796 13.4309128,25.5365123 13.8039562,25.7518891 C14.1769997,25.9672658 14.6366082,25.9672658 15.0096517,25.7518891 C15.3826952,25.5365123 15.6124994,25.1384796 15.6124994,24.7077261 L15.6124994,22.0594391 L17.48999,22.0594391 L17.48999,24.725405 C17.4657937,25.1723811 17.6904968,25.5961581 18.0740588,25.8269249 C18.4576209,26.0576917 18.9372857,26.0576917 19.3208478,25.8269249 C19.7044098,25.5961581 19.9291129,25.1723811 19.9049166,24.725405 L19.9049166,22.0594391 L20.9656458,22.0594391 C21.4850768,22.0594391 21.9061589,21.638357 21.9061589,21.1189259 L21.9061589,12.3643748 L11.1821874,12.3643748 L11.1821874,21.1153901 Z M21.920302,11.4790751 L11.1821874,11.4790751 C11.382655,9.81040686 12.4622432,8.37725351 14.0107984,7.72409393 L13.0172488,6.28150231 C12.9598421,6.20379732 12.9738747,6.09465492 13.0490707,6.03399885 C13.1345182,5.98333913 13.2446507,6.00815771 13.3001099,6.09057107 L14.3254814,7.58973491 C15.7575084,7.02867575 17.3485167,7.02867575 18.7805438,7.58973491 L19.809451,6.09057107 C19.8614922,6.00436977 19.9723518,5.97470311 20.0604902,6.02339156 C20.1356862,6.08404763 20.1497188,6.19319003 20.0923121,6.27089502 L19.0987625,7.72409393 C20.6757131,8.45599703 21.7824072,9.85262373 21.920302,11.4790751 L21.920302,11.4790751 Z M14.8523281,9.42970794 C14.8537496,9.18770731 14.7090741,8.96873824 14.4859043,8.87513469 C14.2627346,8.78153113 14.0051425,8.83177803 13.8335122,9.00239278 C13.6618818,9.17300752 13.6101071,9.43029692 13.7023846,9.65401823 C13.794662,9.87773954 14.0127687,10.0237163 14.2547735,10.0237163 C14.5834121,10.0237163 14.850373,9.75834078 14.8523281,9.42970794 L14.8523281,9.42970794 Z M19.4417317,9.42260884 C19.4417259,9.09500865 19.1764945,8.82925834 18.8488949,8.82861102 C18.5212954,8.82796607 18.2550178,9.09266807 18.2537149,9.42026568 C18.2524216,9.7478633 18.5165932,10.0146672 18.8441876,10.0166172 C19.0035582,10.0194635 19.1573859,9.95813949 19.2710889,9.84643132 C19.3847918,9.73472316 19.4488286,9.58200481 19.4488032,9.42260884 L19.4417317,9.42260884 Z"/></g></g></g></g></g></svg>