<svg xmlns="http://www.w3.org/2000/svg" xmlns:xlink="http://www.w3.org/1999/xlink" width="32" height="32" version="1.1" viewBox="0 0 32 32"><title>55F962AE-C459-4C7B-A7BB-678A89A3A5A5@3x</title><desc>Created with sketchtool.</desc><g id="Device-Pages" fill="none" fill-rule="evenodd" stroke="none" stroke-width="1"><g id="202001---Landing-page---android" transform="translate(-901.000000, -4615.000000)"><g id="Downloads-Copy" transform="translate(-31.000000, 4291.000000)"><g id="icons_stores" transform="translate(509.000000, 324.000000)"><g id="ic_iOS" transform="translate(423.000000, 0.000000)"><rect id="bg_device" width="32" height="32" x="0" y="0" rx="1.091"/><path id="ic_apple" fill="#6D6E70" fill-rule="nonzero" d="M24.1999104,20.708945 C23.8449507,21.55264 23.4101285,22.3610928 22.9012753,23.123461 C22.0575294,24.3961727 20.8652797,25.9852443 19.3905585,25.9961532 C18.0809181,25.9961532 17.7434197,25.1488908 15.9642163,25.1634361 C14.1850129,25.1779814 13.8181668,26.0106985 12.5048579,25.9998958 C11.0374737,25.9998958 9.90391934,24.5452618 9.06017339,23.2834591 C6.69768475,19.7089572 6.44822943,15.5308264 7.89727138,13.305399 C8.93177727,11.7272364 10.5642423,10.8036113 12.0976588,10.8036113 C13.6310753,10.8036113 14.6435705,11.65451 15.9348686,11.65451 C17.2261667,11.65451 17.9525219,10.799975 19.761073,10.799975 C21.2805208,10.8701459 22.689591,11.607158 23.6056198,12.8108595 C20.2379729,14.6472008 20.7845735,19.4289606 24.1999104,20.708945 Z M18.0277576,9.24144653 C18.7538407,8.33444479 19.0956069,7.16711936 18.9767789,6 C17.8250456,6.14573716 16.7690783,6.73091086 16.0191148,7.63901585 C15.3733522,8.44754822 14.8381898,9.64388345 15.0451192,10.799975 C16.217665,10.7683053 17.3136317,10.195626 18.0277576,9.24144653 Z"/></g></g></g></g></g></svg>