<svg xmlns="http://www.w3.org/2000/svg" xmlns:xlink="http://www.w3.org/1999/xlink" width="32" height="32" version="1.1" viewBox="0 0 32 32"><title>93E46C35-EB2D-4442-8129-68DEEE100E50@3x</title><desc>Created with sketchtool.</desc><g id="Device-Pages" fill="none" fill-rule="evenodd" stroke="none" stroke-width="1"><g id="202001---Landing-Page---MacOS---03" transform="translate(-941.000000, -4624.000000)"><g id="Downloads" transform="translate(-31.000000, 4300.000000)"><g id="icons_stores" transform="translate(509.000000, 324.000000)"><g id="ic_router" transform="translate(463.000000, 0.000000)"><rect id="bg_device" width="32" height="32" x="0" y="0" rx="1.92"/><path fill="#6D6E70" fill-rule="nonzero" d="M26,16.91 L26,21.0066667 L24.6333333,21.0066667 L24.6333333,21.8133333 L22.7933333,21.8133333 L22.7933333,21.0066667 L9.20666667,21.0066667 L9.20666667,21.8133333 L7.36666667,21.8133333 L7.36666667,21.0066667 L6,21.0066667 L6,16.91 L26,16.91 Z M8.17333333,18.4633333 C7.89719096,18.4633333 7.67333333,18.687191 7.67333333,18.9633333 C7.67333333,19.2394757 7.89719096,19.4633333 8.17333333,19.4633333 C8.44947571,19.4633333 8.67333333,19.2394757 8.67333333,18.9633333 C8.67333333,18.687191 8.44947571,18.4633333 8.17333333,18.4633333 Z M10.1649442,18.5084559 C9.9790527,18.4307277 9.76462142,18.4730081 9.62214808,18.6154814 C9.47967474,18.7579547 9.43739436,18.972386 9.51512253,19.1582775 C9.5928507,19.344169 9.77518345,19.4646811 9.97666326,19.4633333 L9.97666326,19.4633333 C10.2470865,19.4582093 10.4663761,19.2404015 10.47,18.9699966 C10.4713478,18.7685168 10.3508356,18.586184 10.1649442,18.5084559 Z M24.15,18.4633333 L18.46,18.4633333 C18.1838576,18.4633333 17.96,18.687191 17.96,18.9633333 C17.96,19.2394757 18.1838576,19.4633333 18.46,19.4633333 L18.46,19.4633333 L24.15,19.4633333 C24.4261424,19.4633333 24.65,19.2394757 24.65,18.9633333 C24.65,18.687191 24.4261424,18.4633333 24.15,18.4633333 L24.15,18.4633333 Z M9.82666667,10 L9.91828572,10.0067224 C10.2172589,10.0510055 10.4466667,10.3087122 10.4466667,10.62 L10.4466667,10.62 L10.4466667,16.2666667 L9.20666667,16.2666667 L9.20666667,10.62 C9.20848889,10.2783411 9.48500776,10.0018222 9.82666667,10 L9.82666667,10 Z M22.1733333,10 C22.5157499,10 22.7933333,10.2775835 22.7933333,10.62 L22.7933333,10.62 L22.7933333,16.2666667 L21.5533333,16.2666667 L21.5533333,10.62 C21.5533333,10.2775835 21.8309168,10 22.1733333,10 Z M15.9947292,13.8310698 C16.7171546,13.8270712 17.3950748,14.1796106 17.8066667,14.7733333 L17.8066667,14.7733333 L17.32,15.1066667 C17.0224653,14.6711939 16.5290787,14.4107451 16.0016667,14.4107451 C15.4742546,14.4107451 14.9808681,14.6711939 14.6833333,15.1066667 L14.6833333,15.1066667 L14.203,14.78 L14.3000581,14.6488038 C14.6736356,14.1840362 15.2212439,13.8915167 15.8152598,13.8394185 Z M15.972746,12.4235621 C17.070347,12.4164052 18.1103429,12.9140876 18.7933333,13.7733333 L18.7933333,13.7733333 L18.3333333,14.14 C17.7596339,13.4277072 16.8923428,13.016025 15.9777621,13.0218669 C15.0631814,13.0277087 14.2012201,13.4504366 13.6366667,14.17 L13.6366667,14.17 L13.17,13.81 C13.8417275,12.9419209 14.875145,12.4307189 15.972746,12.4235621 Z M15.9944121,11.0333666 C17.4726253,11.0301551 18.8752427,11.686426 19.82,12.8233333 L19.82,12.8233333 L19.3666667,13.2 C18.5356663,12.198752 17.3011733,11.6206181 16,11.6233333 C14.6957593,11.6233096 13.460218,12.2080509 12.6333333,13.2166667 L12.6333333,13.2166667 L12.1766667,12.84 C13.1164569,11.6989833 14.5161988,11.0366018 15.9944121,11.0333666 Z"/></g></g></g></g></g></svg>